<svg viewBox="0 0 200 200" xmlns="http://www.w3.org/2000/svg">
<defs><radialGradient id="gs" cx="34%" cy="26%" r="78%"><stop offset="0" stop-color="#f6f1e3"/><stop offset="1" stop-color="#d9cdb2"/></radialGradient>
<linearGradient id="roll" x1="0" y1="0" x2="0" y2="1">
<stop offset="0" stop-color="#c9bda3"/><stop offset="1" stop-color="#f6f1e3"/></linearGradient></defs>
<g transform="rotate(-6 100 100)">
<path d="M57 26 l5.5 -9 5.5 9 Z" fill="#f6f1e3"/><path d="M68 26 l5.5 -9 5.5 9 Z" fill="#f6f1e3"/><path d="M79 26 l5.5 -9 5.5 9 Z" fill="#f6f1e3"/><path d="M90 26 l5.5 -9 5.5 9 Z" fill="#f6f1e3"/><path d="M101 26 l5.5 -9 5.5 9 Z" fill="#f6f1e3"/><path d="M112 26 l5.5 -9 5.5 9 Z" fill="#f6f1e3"/><path d="M123 26 l5.5 -9 5.5 9 Z" fill="#f6f1e3"/><path d="M134 26 l5.5 -9 5.5 9 Z" fill="#f6f1e3"/>
<path d="M56 26 L144 26 L144 146 C126 144 118 156 100 156 C82 156 74 144 56 146 Z" fill="url(#gs)"/>
<rect x="70" y="38" width="60" height="7" rx="3.5" fill="#a8451f" opacity=".85"/>
<rect x="70" y="52" width="60" height="4" rx="2" fill="#cfc3a4" opacity=".95"/><rect x="73" y="62" width="42" height="4" rx="2" fill="#cfc3a4" opacity=".95"/>
<path d="M56 144 C74 142 82 154 100 154 C118 154 126 142 144 144
         C148 170 126 182 100 182 C74 182 52 170 56 144 Z" fill="url(#roll)"/>
<path d="M56 144 C74 142 82 154 100 154 C118 154 126 142 144 144" stroke="#a89876"
      stroke-width="3" fill="none" opacity=".85"/>
<ellipse cx="100" cy="170" rx="36" ry="9" fill="#c2b599" opacity=".5"/>
<rect x="74.9" y="78.3" width="14.2" height="31.3" rx="7.1" fill="#221c15" transform="rotate(-8 82 94)"/><rect x="110.9" y="78.3" width="14.2" height="31.3" rx="7.1" fill="#221c15" transform="rotate(8 118 94)"/>
</g>
</svg>