<svg viewBox="0 0 200 200" xmlns="http://www.w3.org/2000/svg">
<defs><radialGradient id="gt" cx="34%" cy="26%" r="78%"><stop offset="0" stop-color="#c9c1b8"/><stop offset="1" stop-color="#8b7f71"/></radialGradient><radialGradient id="gtp" cx="34%" cy="26%" r="78%"><stop offset="0" stop-color="#e5825a"/><stop offset="1" stop-color="#c9502a"/></radialGradient></defs>
<path d="M100 4 C92 18 88 28 90 40 L110 40 C112 28 108 18 100 4 Z" fill="url(#gtp)"/>
<ellipse cx="100" cy="40" rx="13" ry="5" fill="#a89b8c"/>
<path d="M100 26 C128 30 146 56 146 92 L146 120 C146 148 126 164 100 164
         C74 164 54 148 54 120 L54 92 C54 56 72 30 100 26 Z" fill="url(#gt)"/>
<path d="M100 26 C104 60 104 130 100 164" stroke="#efe8df" stroke-width="3.5" fill="none" opacity=".45"/>
<path d="M54 86 C70 72 130 72 146 86 L146 96 C130 84 70 84 54 96 Z" fill="#6f6557"/>
<path d="M58 104 C74 96 126 96 142 104 L142 116 C126 110 74 110 58 116 Z" fill="#221c15"/>
<path d="M100 116 L100 150" stroke="#6f6557" stroke-width="7" stroke-linecap="round"/>
<circle cx="118" cy="128" r="2.4" fill="#221c15" opacity=".55"/><circle cx="126" cy="135" r="2.4" fill="#221c15" opacity=".55"/><circle cx="134" cy="128" r="2.4" fill="#221c15" opacity=".55"/><circle cx="142" cy="135" r="2.4" fill="#221c15" opacity=".55"/>
<path d="M56 148 C74 140 126 140 144 148 L150 166 C128 156 72 156 50 166 Z" fill="#a89b8c"/>
<circle cx="62" cy="160" r="2.6" fill="#7d7264" opacity=".8"/><circle cx="81" cy="160" r="2.6" fill="#7d7264" opacity=".8"/><circle cx="100" cy="160" r="2.6" fill="#7d7264" opacity=".8"/><circle cx="119" cy="160" r="2.6" fill="#7d7264" opacity=".8"/><circle cx="138" cy="160" r="2.6" fill="#7d7264" opacity=".8"/>
<circle cx="80" cy="110" r="6.8" fill="#f6f1e3"/><circle cx="120" cy="110" r="6.8" fill="#f6f1e3"/>
</svg>